<svg xmlns="http://www.w3.org/2000/svg" xlink="http://www.w3.org/1999/xlink" width="0" height="0" style="display:none;"><symbol viewBox="0 0 24 24" id="dashboard-3-line"><path fill="none" d="M0 0H24V24H0z"/><path d="M12 2c5.523 0 10 4.477 10 10s-4.477 10-10 10S2 17.523 2 12 6.477 2 12 2zm0 2c-4.418 0-8 3.582-8 8s3.582 8 8 8 8-3.582 8-8-3.582-8-8-8zm3.833 3.337c.237-.166.559-.138.763.067.204.204.23.526.063.76-2.18 3.046-3.38 4.678-3.598 4.897-.586.585-1.536.585-2.122 0-.585-.586-.585-1.536 0-2.122.374-.373 2.005-1.574 4.894-3.602zM17.5 11c.552 0 1 .448 1 1s-.448 1-1 1-1-.448-1-1 .448-1 1-1zm-11 0c.552 0 1 .448 1 1s-.448 1-1 1-1-.448-1-1 .448-1 1-1zm2.318-3.596c.39.39.39 1.023 0 1.414-.39.39-1.024.39-1.414 0-.39-.39-.39-1.024 0-1.414.39-.39 1.023-.39 1.414 0zM12 5.5c.552 0 1 .448 1 1s-.448 1-1 1-1-.448-1-1 .448-1 1-1z"/></symbol><symbol viewBox="0 0 24 24" id="node-tree"><path fill="none" d="M0 0H24V24H0z"/><path d="M10 2c.552 0 1 .448 1 1v4c0 .552-.448 1-1 1H8v2h5V9c0-.552.448-1 1-1h6c.552 0 1 .448 1 1v4c0 .552-.448 1-1 1h-6c-.552 0-1-.448-1-1v-1H8v6h5v-1c0-.552.448-1 1-1h6c.552 0 1 .448 1 1v4c0 .552-.448 1-1 1h-6c-.552 0-1-.448-1-1v-1H7c-.552 0-1-.448-1-1V8H4c-.552 0-1-.448-1-1V3c0-.552.448-1 1-1h6zm9 16h-4v2h4v-2zm0-8h-4v2h4v-2zM9 4H5v2h4V4z"/></symbol><symbol viewBox="0 0 24 24" id="trophy-line"><path fill="none" d="M0 0h24v24H0z"/><path d="M13 16.938V19h5v2H6v-2h5v-2.062A8.001 8.001 0 0 1 4 9V3h16v6a8.001 8.001 0 0 1-7 7.938zM6 5v4a6 6 0 1 0 12 0V5H6zM1 5h2v4H1V5zm20 0h2v4h-2V5z"/></symbol><symbol viewBox="0 0 24 24" id="vip-diamond-line"><path fill="none" d="M0 0h24v24H0z"/><path d="M4.873 3h14.254a1 1 0 0 1 .809.412l3.823 5.256a.5.5 0 0 1-.037.633L12.367 21.602a.5.5 0 0 1-.706.028c-.007-.006-3.8-4.115-11.383-12.329a.5.5 0 0 1-.037-.633l3.823-5.256A1 1 0 0 1 4.873 3zm.51 2l-2.8 3.85L12 19.05 21.417 8.85 18.617 5H5.383z"/></symbol><symbol viewBox="0 0 24 24" id="funds-line"><path fill="none" d="M0 0h24v24H0z"/><path d="M4.406 14.523l3.402-3.402 2.828 2.829 3.157-3.157L12 9h5v5l-1.793-1.793-4.571 4.571-2.828-2.828-2.475 2.474a8 8 0 1 0-.927-1.9zm-1.538 1.558l-.01-.01.004-.004A9.965 9.965 0 0 1 2 12C2 6.477 6.477 2 12 2s10 4.477 10 10-4.477 10-10 10c-4.07 0-7.57-2.43-9.132-5.919z"/></symbol><symbol viewBox="0 0 24 24" id="heart-line"><path fill="none" d="M0 0H24V24H0z"/><path d="M12.001 4.529c2.349-2.109 5.979-2.039 8.242.228 2.262 2.268 2.34 5.88.236 8.236l-8.48 8.492-8.478-8.492c-2.104-2.356-2.025-5.974.236-8.236 2.265-2.264 5.888-2.34 8.244-.228zm6.826 1.641c-1.5-1.502-3.92-1.563-5.49-.153l-1.335 1.198-1.336-1.197c-1.575-1.412-3.99-1.35-5.494.154-1.49 1.49-1.565 3.875-.192 5.451L12 18.654l7.02-7.03c1.374-1.577 1.299-3.959-.193-5.454z"/></symbol><symbol viewBox="0 0 24 24" id="heart-pulse-line"><path fill="none" d="M0 0H24V24H0z"/><path d="M16.5 3C19.538 3 22 5.5 22 9c0 7-7.5 11-10 12.5-1.977-1.186-7.083-3.937-9.131-8.499L1 13v-2h1.21C2.074 10.364 2 9.698 2 9c0-3.5 2.5-6 5.5-6C9.36 3 11 4 12 5c1-1 2.64-2 4.5-2zm0 2c-1.076 0-2.24.57-3.086 1.414L12 7.828l-1.414-1.414C9.74 5.57 8.576 5 7.5 5 5.56 5 4 6.656 4 9c0 .685.09 1.352.267 2h2.167L8.5 7.556l3 5L12.434 11H17v2h-3.434L11.5 16.444l-3-5L7.566 13H5.108c.79 1.374 1.985 2.668 3.537 3.903.745.592 1.54 1.145 2.421 1.7.299.189.595.37.934.572.339-.202.635-.383.934-.571.881-.556 1.676-1.109 2.42-1.701C18.335 14.533 20 11.943 20 9c0-2.36-1.537-4-3.5-4z"/></symbol><symbol viewBox="0 0 24 24" id="reactjs-fill"><path fill="none" d="M0 0h24v24H0z"/><path d="M14.448 16.24a21.877 21.877 0 0 1-1.747 2.175c1.672 1.623 3.228 2.383 4.09 1.884.864-.498.983-2.225.414-4.484-.853.19-1.78.334-2.757.425zm-1.31.087a27.512 27.512 0 0 1-2.276 0c.377.492.758.948 1.138 1.364.38-.416.76-.872 1.138-1.364zm5.04-7.894c2.665.764 4.405 2.034 4.405 3.567 0 1.533-1.74 2.803-4.405 3.567.67 2.69.441 4.832-.886 5.598-1.328.767-3.298-.105-5.292-2.03-1.994 1.925-3.964 2.797-5.292 2.03-1.327-.766-1.557-2.908-.886-5.598-2.665-.764-4.405-2.034-4.405-3.567 0-1.533 1.74-2.803 4.405-3.567-.67-2.69-.441-4.832.886-5.598 1.328-.767 3.298.105 5.292 2.03 1.994-1.925 3.964-2.797 5.292-2.03 1.327.766 1.557 2.908.886 5.598zm-.973-.248c.57-2.26.45-3.986-.413-4.484-.863-.499-2.419.261-4.09 1.884.591.643 1.179 1.374 1.746 2.175.978.09 1.904.234 2.757.425zm-10.41 7.63c-.57 2.26-.45 3.986.413 4.484.863.499 2.419-.261 4.09-1.884a21.877 21.877 0 0 1-1.746-2.175 21.877 21.877 0 0 1-2.757-.425zm4.067-8.142a27.512 27.512 0 0 1 2.276 0A20.523 20.523 0 0 0 12 6.31c-.38.416-.76.872-1.138 1.364zm-1.31.087A21.877 21.877 0 0 1 11.3 5.585C9.627 3.962 8.07 3.202 7.209 3.701c-.864.498-.983 2.225-.414 4.484.853-.19 1.78-.334 2.757-.425zm4.342 7.52A25.368 25.368 0 0 0 15.787 12a25.368 25.368 0 0 0-1.893-3.28 25.368 25.368 0 0 0-3.788 0A25.368 25.368 0 0 0 8.213 12a25.368 25.368 0 0 0 1.893 3.28 25.368 25.368 0 0 0 3.788 0zm1.284-.131c.615-.08 1.2-.183 1.75-.304a20.523 20.523 0 0 0-.612-1.667 27.512 27.512 0 0 1-1.138 1.97zM8.822 8.85c-.615.08-1.2.183-1.75.304.17.536.374 1.094.612 1.667a27.512 27.512 0 0 1 1.138-1.97zm-1.75 5.994c.55.121 1.135.223 1.75.304a27.512 27.512 0 0 1-1.138-1.97c-.238.572-.442 1.13-.612 1.666zm-.978-.245c.261-.834.6-1.708 1.01-2.6-.41-.892-.749-1.766-1.01-2.6-2.242.637-3.677 1.604-3.677 2.6s1.435 1.963 3.677 2.6zm10.834-5.445c-.55-.121-1.135-.223-1.75-.304a27.511 27.511 0 0 1 1.138 1.97c.238-.572.442-1.13.612-1.666zm.978.245c-.261.834-.6 1.708-1.01 2.6.41.892.749 1.766 1.01 2.6 2.242-.637 3.677-1.604 3.677-2.6s-1.435-1.963-3.677-2.6zM12 13.88a1.88 1.88 0 1 1 0-3.76 1.88 1.88 0 0 1 0 3.76z"/></symbol><symbol viewBox="0 0 24 24" id="space-ship-line"><path fill="none" d="M0 0h24v24H0z"/><path d="M2.88 18.054a35.897 35.897 0 0 1 8.531-16.32.8.8 0 0 1 1.178 0c.166.18.304.332.413.455a35.897 35.897 0 0 1 8.118 15.865c-2.141.451-4.34.747-6.584.874l-2.089 4.178a.5.5 0 0 1-.894 0l-2.089-4.178a44.019 44.019 0 0 1-6.584-.874zm6.698-1.123l1.157.066L12 19.527l1.265-2.53 1.157-.066a42.137 42.137 0 0 0 4.227-.454A33.913 33.913 0 0 0 12 4.09a33.913 33.913 0 0 0-6.649 12.387c1.395.222 2.805.374 4.227.454zM12 15a3 3 0 1 1 0-6 3 3 0 0 1 0 6zm0-2a1 1 0 1 0 0-2 1 1 0 0 0 0 2z"/></symbol><symbol viewBox="0 0 24 24" id="menu-line"><path fill="none" d="M0 0h24v24H0z"/><path d="M3 4h18v2H3V4zm0 7h18v2H3v-2zm0 7h18v2H3v-2z"/></symbol><symbol viewBox="0 0 24 24" id="settings-3-line"><path fill="none" d="M0 0h24v24H0z"/><path d="M3.34 17a10.018 10.018 0 0 1-.978-2.326 3 3 0 0 0 .002-5.347A9.99 9.99 0 0 1 4.865 4.99a3 3 0 0 0 4.631-2.674 9.99 9.99 0 0 1 5.007.002 3 3 0 0 0 4.632 2.672c.579.59 1.093 1.261 1.525 2.01.433.749.757 1.53.978 2.326a3 3 0 0 0-.002 5.347 9.99 9.99 0 0 1-2.501 4.337 3 3 0 0 0-4.631 2.674 9.99 9.99 0 0 1-5.007-.002 3 3 0 0 0-4.632-2.672A10.018 10.018 0 0 1 3.34 17zm5.66.196a4.993 4.993 0 0 1 2.25 2.77c.499.047 1 .048 1.499.001A4.993 4.993 0 0 1 15 17.197a4.993 4.993 0 0 1 3.525-.565c.29-.408.54-.843.748-1.298A4.993 4.993 0 0 1 18 12c0-1.26.47-2.437 1.273-3.334a8.126 8.126 0 0 0-.75-1.298A4.993 4.993 0 0 1 15 6.804a4.993 4.993 0 0 1-2.25-2.77c-.499-.047-1-.048-1.499-.001A4.993 4.993 0 0 1 9 6.803a4.993 4.993 0 0 1-3.525.565 7.99 7.99 0 0 0-.748 1.298A4.993 4.993 0 0 1 6 12c0 1.26-.47 2.437-1.273 3.334a8.126 8.126 0 0 0 .75 1.298A4.993 4.993 0 0 1 9 17.196zM12 15a3 3 0 1 1 0-6 3 3 0 0 1 0 6zm0-2a1 1 0 1 0 0-2 1 1 0 0 0 0 2z"/></symbol></svg>