<svg xmlns="http://www.w3.org/2000/svg" xlink="http://www.w3.org/1999/xlink" width="0" height="0" style="display:none;"><symbol viewBox="0 0 24 24" id="bar-chart-2-fill"><path fill="none" d="M0 0h24v24H0z"/><path d="M2 13h6v8H2v-8zM9 3h6v18H9V3zm7 5h6v13h-6V8z"/></symbol><symbol viewBox="0 0 24 24" id="shopping-cart-fill"><path fill="none" d="M0 0h24v24H0z"/><path d="M6 9h13.938l.5-2H8V5h13.72a1 1 0 0 1 .97 1.243l-2.5 10a1 1 0 0 1-.97.757H5a1 1 0 0 1-1-1V4H2V2h3a1 1 0 0 1 1 1v6zm0 14a2 2 0 1 1 0-4 2 2 0 0 1 0 4zm12 0a2 2 0 1 1 0-4 2 2 0 0 1 0 4z"/></symbol><symbol viewBox="0 0 24 24" id="ink-bottle-fill"><path fill="none" d="M0 0H24V24H0z"/><path d="M16 9l4.371 1.749c.38.151.629.52.629.928V21c0 .552-.448 1-1 1H4c-.552 0-1-.448-1-1v-9.323c0-.409.249-.777.629-.928L8 9h8zm4 5H8v5h12v-5zM16 3c.552 0 1 .448 1 1v4H7V4c0-.552.448-1 1-1h8z"/></symbol><symbol viewBox="0 0 24 24" id="book-2-fill"><path fill="none" d="M0 0h24v24H0z"/><path d="M21 18H6a1 1 0 0 0 0 2h15v2H6a3 3 0 0 1-3-3V4a2 2 0 0 1 2-2h16v16zm-5-9V7H8v2h8z"/></symbol><symbol viewBox="0 0 24 24" id="calendar-fill"><path fill="none" d="M0 0h24v24H0z"/><path d="M2 11h20v9a1 1 0 0 1-1 1H3a1 1 0 0 1-1-1v-9zm15-8h4a1 1 0 0 1 1 1v5H2V4a1 1 0 0 1 1-1h4V1h2v2h6V1h2v2z"/></symbol><symbol viewBox="0 0 24 24" id="global-fill"><path fill="none" d="M0 0h24v24H0z"/><path d="M2.05 13h5.477a17.9 17.9 0 0 0 2.925 8.88A10.005 10.005 0 0 1 2.05 13zm0-2a10.005 10.005 0 0 1 8.402-8.88A17.9 17.9 0 0 0 7.527 11H2.05zm19.9 0h-5.477a17.9 17.9 0 0 0-2.925-8.88A10.005 10.005 0 0 1 21.95 11zm0 2a10.005 10.005 0 0 1-8.402 8.88A17.9 17.9 0 0 0 16.473 13h5.478zM9.53 13h4.94A15.908 15.908 0 0 1 12 20.592 15.908 15.908 0 0 1 9.53 13zm0-2A15.908 15.908 0 0 1 12 3.408 15.908 15.908 0 0 1 14.47 11H9.53z"/></symbol><symbol viewBox="0 0 24 24" id="service-fill"><path fill="none" d="M0 0h24v24H0z"/><path d="M14.121 10.48a1 1 0 0 0-1.414 0l-.707.706a2 2 0 1 1-2.828-2.828l5.63-5.632a6.5 6.5 0 0 1 6.377 10.568l-2.108 2.135-4.95-4.95zM3.161 4.468a6.503 6.503 0 0 1 8.009-.938L7.757 6.944a4 4 0 0 0 5.513 5.794l.144-.137 4.243 4.242-4.243 4.243a2 2 0 0 1-2.828 0L3.16 13.66a6.5 6.5 0 0 1 0-9.192z"/></symbol><symbol viewBox="0 0 24 24" id="menu-line"><path fill="none" d="M0 0h24v24H0z"/><path d="M3 4h18v2H3V4zm0 7h18v2H3v-2zm0 7h18v2H3v-2z"/></symbol><symbol viewBox="0 0 24 24" id="vip-diamond-fill"><path fill="none" d="M0 0h24v24H0z"/><path d="M4.873 3h14.254a1 1 0 0 1 .809.412l3.823 5.256a.5.5 0 0 1-.037.633L12.367 21.602a.5.5 0 0 1-.734 0L.278 9.302a.5.5 0 0 1-.037-.634l3.823-5.256A1 1 0 0 1 4.873 3z"/></symbol><symbol viewBox="0 0 24 24" id="arrow-left-s-line"><path fill="none" d="M0 0h24v24H0z"/><path d="M10.828 12l4.95 4.95-1.414 1.414L8 12l6.364-6.364 1.414 1.414z"/></symbol><symbol viewBox="0 0 24 24" id="github-fill"><path fill="none" d="M0 0h24v24H0z"/><path d="M12 2C6.475 2 2 6.475 2 12a9.994 9.994 0 0 0 6.838 9.488c.5.087.687-.213.687-.476 0-.237-.013-1.024-.013-1.862-2.512.463-3.162-.612-3.362-1.175-.113-.288-.6-1.175-1.025-1.413-.35-.187-.85-.65-.013-.662.788-.013 1.35.725 1.538 1.025.9 1.512 2.338 1.087 2.912.825.088-.65.35-1.087.638-1.337-2.225-.25-4.55-1.113-4.55-4.938 0-1.088.387-1.987 1.025-2.688-.1-.25-.45-1.275.1-2.65 0 0 .837-.262 2.75 1.026a9.28 9.28 0 0 1 2.5-.338c.85 0 1.7.112 2.5.337 1.912-1.3 2.75-1.024 2.75-1.024.55 1.375.2 2.4.1 2.65.637.7 1.025 1.587 1.025 2.687 0 3.838-2.337 4.688-4.562 4.938.362.312.675.912.675 1.85 0 1.337-.013 2.412-.013 2.75 0 .262.188.574.688.474A10.016 10.016 0 0 0 22 12c0-5.525-4.475-10-10-10z"/></symbol><symbol viewBox="0 0 24 24" id="twitter-fill"><path fill="none" d="M0 0h24v24H0z"/><path d="M22.162 5.656a8.384 8.384 0 0 1-2.402.658A4.196 4.196 0 0 0 21.6 4c-.82.488-1.719.83-2.656 1.015a4.182 4.182 0 0 0-7.126 3.814 11.874 11.874 0 0 1-8.62-4.37 4.168 4.168 0 0 0-.566 2.103c0 1.45.738 2.731 1.86 3.481a4.168 4.168 0 0 1-1.894-.523v.052a4.185 4.185 0 0 0 3.355 4.101 4.21 4.21 0 0 1-1.89.072A4.185 4.185 0 0 0 7.97 16.65a8.394 8.394 0 0 1-6.191 1.732 11.83 11.83 0 0 0 6.41 1.88c7.693 0 11.9-6.373 11.9-11.9 0-.18-.005-.362-.013-.54a8.496 8.496 0 0 0 2.087-2.165z"/></symbol><symbol viewBox="0 0 24 24" id="linkedin-box-fill"><path fill="none" d="M0 0h24v24H0z"/><path d="M18.335 18.339H15.67v-4.177c0-.996-.02-2.278-1.39-2.278-1.389 0-1.601 1.084-1.601 2.205v4.25h-2.666V9.75h2.56v1.17h.035c.358-.674 1.228-1.387 2.528-1.387 2.7 0 3.2 1.778 3.2 4.091v4.715zM7.003 8.575a1.546 1.546 0 0 1-1.548-1.549 1.548 1.548 0 1 1 1.547 1.549zm1.336 9.764H5.666V9.75H8.34v8.589zM19.67 3H4.329C3.593 3 3 3.58 3 4.297v15.406C3 20.42 3.594 21 4.328 21h15.338C20.4 21 21 20.42 21 19.703V4.297C21 3.58 20.4 3 19.666 3h.003z"/></symbol><symbol viewBox="0 0 24 24" id="codepen-fill"><path fill="none" d="M0 0h24v24H0z"/><path d="M12 10.202L9.303 12 12 13.798 14.697 12 12 10.202zm4.5.596L19.197 9 13 4.869v3.596l3.5 2.333zm3.5.07L18.303 12 20 13.131V10.87zm-3.5 2.334L13 15.535v3.596L19.197 15 16.5 13.202zM11 8.465V4.869L4.803 9 7.5 10.798 11 8.465zM4.803 15L11 19.131v-3.596l-3.5-2.333L4.803 15zm.894-3L4 10.869v2.262L5.697 12zM2 9a1 1 0 0 1 .445-.832l9-6a1 1 0 0 1 1.11 0l9 6A1 1 0 0 1 22 9v6a1 1 0 0 1-.445.832l-9 6a1 1 0 0 1-1.11 0l-9-6A1 1 0 0 1 2 15V9z"/></symbol></svg>